<svg width="24" height="24" viewBox="0 0 32 32" fill="none" xmlns="http://www.w3.org/2000/svg">
<path d="M19.3333 2.66669H7.99992C7.29267 2.66669 6.6144 2.94764 6.1143 3.44774C5.6142 3.94783 5.33325 4.62611 5.33325 5.33335V26.6667C5.33325 27.3739 5.6142 28.0522 6.1143 28.5523C6.6144 29.0524 7.29267 29.3334 7.99992 29.3334H23.9999C24.7072 29.3334 25.3854 29.0524 25.8855 28.5523C26.3856 28.0522 26.6666 27.3739 26.6666 26.6667V10L19.3333 2.66669Z" stroke="#FFFF" stroke-width="3" stroke-linecap="round" stroke-linejoin="round"/>
<path d="M18.6667 2.66669V10.6667H26.6667" stroke="#FFF" stroke-width="3" stroke-linecap="round" stroke-linejoin="round"/>
<path d="M13.3334 20C14.8062 20 16.0001 18.8061 16.0001 17.3334C16.0001 15.8606 14.8062 14.6667 13.3334 14.6667C11.8607 14.6667 10.6667 15.8606 10.6667 17.3334C10.6667 18.8061 11.8607 20 13.3334 20Z" stroke="#FFF" stroke-width="3" stroke-linecap="round" stroke-linejoin="round"/>
<path d="M26.6666 22.6666L25.2133 21.2133C24.7136 20.7166 24.0377 20.4379 23.3333 20.4379C22.6288 20.4379 21.9529 20.7166 21.4533 21.2133L13.3333 29.3333" stroke="#FFF" stroke-width="3" stroke-linecap="round" stroke-linejoin="round"/>
</svg>
