<svg width="33" height="32" viewBox="0 0 33 32" fill="none" xmlns="http://www.w3.org/2000/svg">
<path d="M20.5 29.3334V24.0001C20.6855 22.3298 20.2066 20.6536 19.1667 19.3334C23.1667 19.3334 27.1667 16.6667 27.1667 12.0001C27.2733 10.3334 26.8067 8.69341 25.8333 7.33341C26.2067 5.80008 26.2067 4.20008 25.8333 2.66675C25.8333 2.66675 24.5 2.66675 21.8333 4.66675C18.3133 4.00008 14.6867 4.00008 11.1667 4.66675C8.49999 2.66675 7.16666 2.66675 7.16666 2.66675C6.76666 4.20008 6.76666 5.80008 7.16666 7.33341C6.19582 8.68793 5.72462 10.3371 5.83333 12.0001C5.83333 16.6667 9.83333 19.3334 13.8333 19.3334C13.3133 19.9867 12.9267 20.7334 12.7 21.5334C12.4733 22.3334 12.4067 23.1734 12.5 24.0001V29.3334" stroke="#182822" stroke-width="3" stroke-linecap="round" stroke-linejoin="round"/>
<path d="M12.5 23.9999C6.48667 26.6666 5.83334 21.3333 3.16667 21.3333" stroke="#182822" stroke-width="3" stroke-linecap="round" stroke-linejoin="round"/>
</svg>
