<svg width="33" height="32" viewBox="0 0 33 32" fill="none" xmlns="http://www.w3.org/2000/svg">
    <path d="M23.4167 2.66675H10.0833C6.40144 2.66675 3.41667 5.65152 3.41667 9.33342V22.6667C3.41667 26.3486 6.40144 29.3334 10.0833 29.3334H23.4167C27.0986 29.3334 30.0833 26.3486 30.0833 22.6667V9.33342C30.0833 5.65152 27.0986 2.66675 23.4167 2.66675Z"
          stroke="#182822" stroke-width="3" stroke-linecap="round" stroke-linejoin="round"/>
    <path d="M22.0833 15.1599C22.2479 16.2696 22.0583 17.4029 21.5417 18.3986C21.025 19.3943 20.2075 20.2018 19.2055 20.7061C18.2035 21.2105 17.0679 21.386 15.9604 21.2078C14.8528 21.0296 13.8297 20.5067 13.0365 19.7135C12.2432 18.9202 11.7203 17.8971 11.5421 16.7895C11.3639 15.682 11.5394 14.5464 12.0438 13.5444C12.5481 12.5424 13.3556 11.7249 14.3513 11.2082C15.347 10.6916 16.4803 10.502 17.59 10.6666C18.7219 10.8344 19.7698 11.3619 20.5789 12.171C21.3881 12.9801 21.9155 14.028 22.0833 15.1599Z"
          stroke="#182822" stroke-width="3" stroke-linecap="round" stroke-linejoin="round"/>
    <path d="M24.0833 8.66675H24.0967" stroke="#182822" stroke-width="3" stroke-linecap="round"
          stroke-linejoin="round"/>
</svg>
