<svg width="33" height="32" viewBox="0 0 33 32" fill="none" xmlns="http://www.w3.org/2000/svg">
<path d="M29.5833 22.56V26.56C29.5849 26.9313 29.5088 27.2989 29.36 27.6391C29.2113 27.9793 28.9931 28.2848 28.7195 28.5358C28.4458 28.7868 28.1228 28.9779 27.771 29.0969C27.4192 29.2159 27.0465 29.2601 26.6767 29.2266C22.5738 28.7808 18.6327 27.3788 15.17 25.1333C11.9485 23.0862 9.21713 20.3549 7.17001 17.1333C4.91665 13.6549 3.51434 9.69463 3.07668 5.5733C3.04336 5.20459 3.08718 4.83298 3.20535 4.48213C3.32351 4.13128 3.51344 3.80889 3.76303 3.53546C4.01263 3.26204 4.31642 3.04358 4.65507 2.894C4.99372 2.74441 5.3598 2.66698 5.73001 2.66663H9.73001C10.3771 2.66026 11.0044 2.8894 11.495 3.31134C11.9857 3.73328 12.3061 4.31923 12.3967 4.95997C12.5655 6.24006 12.8786 7.49694 13.33 8.70663C13.5094 9.18387 13.5482 9.70252 13.4419 10.2011C13.3355 10.6998 13.0885 11.1574 12.73 11.52L11.0367 13.2133C12.9348 16.5514 15.6986 19.3152 19.0367 21.2133L20.73 19.52C21.0925 19.1615 21.5502 18.9144 22.0488 18.8081C22.5475 18.7018 23.0661 18.7406 23.5433 18.92C24.753 19.3714 26.0099 19.6845 27.29 19.8533C27.9377 19.9447 28.5292 20.2709 28.9521 20.77C29.3749 21.269 29.5996 21.9061 29.5833 22.56Z" stroke="#182822" stroke-width="3" stroke-linecap="round" stroke-linejoin="round"/>
</svg>
