<svg width="32" height="32" viewBox="0 0 32 32" fill="none" xmlns="http://www.w3.org/2000/svg">
<path d="M16 25.3334C12.9333 25.3334 7.46666 25.0667 5.2 24.5334C4.26666 24.2667 3.6 23.6001 3.33333 22.6667C2.93333 21.2001 2.66666 18.1334 2.66666 16.0001C2.66666 13.8667 2.93333 10.8001 3.33333 9.33341C3.6 8.40008 4.26666 7.73341 5.2 7.46675C7.46666 6.93341 12.9333 6.66675 16 6.66675C19.0667 6.66675 24.5333 6.93341 26.8 7.46675C27.7333 7.73341 28.4 8.40008 28.6667 9.33341C29.0667 10.8001 29.3333 13.8667 29.3333 16.0001C29.3333 18.1334 29.0667 21.2001 28.6667 22.6667C28.4 23.6001 27.7333 24.2667 26.8 24.5334C24.5333 25.0667 19.0667 25.3334 16 25.3334Z" stroke="#182822" stroke-width="3" stroke-linecap="round" stroke-linejoin="round"/>
<path d="M13.3333 20L20 16L13.3333 12V20Z" stroke="#182822" stroke-width="3" stroke-linecap="round" stroke-linejoin="round"/>
</svg>
