<svg width="68" height="40" viewBox="0 0 68 40" fill="none" xmlns="http://www.w3.org/2000/svg">
    <g filter="url(#filter1_d_73_37)">
        <path d="M4 20C4 18.3431 5.34315 17 7 17H51.1429C58.2437 17 64 22.7563 64 29.8571C64 31.0406 63.0406 32 61.8571 32H16C9.37258 32 4 26.6274 4 20Z"
              fill="#F29620"/>
    </g>
    <g filter="url(#filter0_d_73_37)">
        <path d="M4 3C4 1.34315 5.34315 0 7 0H51.1429C58.2437 0 64 5.75634 64 12.8571C64 14.0406 63.0406 15 61.8571 15H16C9.37258 15 4 9.62742 4 3Z"
              fill="#182822"/>
    </g>
    <defs>
        <filter id="filter0_d_73_37" x="0" y="0" width="68" height="23" filterUnits="userSpaceOnUse"
                color-interpolation-filters="sRGB">
            <feFlood flood-opacity="0" result="BackgroundImageFix"/>
            <feColorMatrix in="SourceAlpha" type="matrix" values="0 0 0 0 0 0 0 0 0 0 0 0 0 0 0 0 0 0 127 0"
                           result="hardAlpha"/>
            <feOffset dy="4"/>
            <feGaussianBlur stdDeviation="2"/>
            <feComposite in2="hardAlpha" operator="out"/>
            <feColorMatrix type="matrix" values="0 0 0 0 0 0 0 0 0 0 0 0 0 0 0 0 0 0 0.25 0"/>
            <feBlend mode="normal" in2="BackgroundImageFix" result="effect1_dropShadow_73_37"/>
            <feBlend mode="normal" in="SourceGraphic" in2="effect1_dropShadow_73_37" result="shape"/>
        </filter>
        <filter id="filter1_d_73_37" x="0" y="17" width="68" height="23" filterUnits="userSpaceOnUse"
                color-interpolation-filters="sRGB">
            <feFlood flood-opacity="0" result="BackgroundImageFix"/>
            <feColorMatrix in="SourceAlpha" type="matrix" values="0 0 0 0 0 0 0 0 0 0 0 0 0 0 0 0 0 0 127 0"
                           result="hardAlpha"/>
            <feOffset dy="4"/>
            <feGaussianBlur stdDeviation="2"/>
            <feComposite in2="hardAlpha" operator="out"/>
            <feColorMatrix type="matrix" values="0 0 0 0 0 0 0 0 0 0 0 0 0 0 0 0 0 0 0.25 0"/>
            <feBlend mode="normal" in2="BackgroundImageFix" result="effect1_dropShadow_73_37"/>
            <feBlend mode="normal" in="SourceGraphic" in2="effect1_dropShadow_73_37" result="shape"/>
        </filter>
    </defs>
</svg>
